# xmcd CD database file
#
# Track frame offsets:
#	150
#	26189
#	47074
#	67663
#	89432
#	113206
#	133010
#	157668
#	178597
#	197950
#	219719
#
# Disc length: 3275 seconds
#
# Revision: 0
# Processed by: cddbd v1.5.1PL2 Copyright (c) Steve Scherf et al.
# Submitted via: CDex 1.51
#
DISCID=970cc90b
DTITLE=Grupo Niche - Alive
DYEAR=2005
DGENRE=Salsa
TTITLE0=Hola Rosa (Salsa)
TTITLE1=Damaris Canto (A Mi Medida)
TTITLE2=Cocomania
TTITLE3=Rupelto Mena
TTITLE4=Que Viva Pto. Rico
TTITLE5=Del Puente Pa'lla
TTITLE6=Bandariba Bandabau
TTITLE7=Hagamos
TTITLE8=Se Pone Bueno
TTITLE9=Falto Un Pañuelo
TTITLE10=Hola Rola (Reggaeton)
EXTD=YEAR: 2005
EXTT0=
EXTT1=
EXTT2=
EXTT3=
EXTT4=
EXTT5=
EXTT6=
EXTT7=
EXTT8=
EXTT9=
EXTT10=
PLAYORDER=
